<svg version="1.1" xmlns="http://www.w3.org/2000/svg" viewBox="-348.98000100000013 -36.816988963985004 697.960002 72.41973676717609" fill="none" stroke="black" stroke-width="0.6%" vector-effect="non-scaling-stroke">
    <path d="M 319.5 20.98091 A 319.5 13.62184 360 0 1 -319.5 20.98091" />
    <path d="M 347.98 -18.98272 A 347.98 14.83608 360 0 1 -347.98 -18.98272" />
    <path d="M -246.05884 -31.47161 A 347.98 14.83608 360 0 1 347.98 -20.98091 A 347.98 14.83608 360 0 1 -347.98 -20.98091 A 347.98 14.83608 360 0 1 -246.05884 -31.47161 Z" />
    <path d="M 224.50624 -11.4091 A 317.5 13.53657 360 0 1 -317.5 -20.98091 A 317.5 13.53657 360 0 1 317.5 -20.98091 A 317.5 13.53657 360 0 1 224.50624 -11.4091 Z" />
    <path d="M -319.5 -13.10439 L -319.5 20.98091" />
    <path d="M 319.5 -13.10439 L 319.5 20.98091" />
    <path d="M -347.98 -20.98091 L -347.98 -18.98272" />
    <path d="M 347.98 -20.98091 L 347.98 -18.98272" />
</svg>